<?xml version="1.0" encoding="UTF-8"?><svg id="a" xmlns="http://www.w3.org/2000/svg" viewBox="0 0 122.66 77.39"><path d="M71.07,10.73c.77-.32,1.03-1.29,1.19-1.36,.11-.05,.06-.02,.13,.08,.2,.29,.46,1.34,.63,1.79s.51,1.35,.72,1.79c.13,.26,.44,.76,.58,1.01,.29,.52,.9,1.53,1.11,2.08,.22,.58,1.2,2.42,.58,2.42-6.43-.03-18.08-.09-26.39-.17-2.29-.02-4.33-.05-5.93-.07-.58,0,1.79-1.45,1.79-1.45,.86-.35,4.35-9.47,4.83-9.66,.67-.26,1.59,1.31,2.27,1.79,.12,.08,.39-.26,.53-.24,.37,.05,.8,.86,1.16,.97,0,0,2.03,1.28,2.35,1.17,.52-.19,.53-1.76,1.07-2.29,.91-.89,.15-1.84,.66-2.04,.17-.07,1.73,2.25,1.73,2.25,.3,.19-.06,.32,.32,.63,.12,.09,.19,.48,.34,.48,.58,0,1.25-1.86,1.35-1.88,.31-.06,.51,.79,.72,1.01,.13,.14,.39,.47,.58,.48,.17,.01,.58-.34,.58-.34,.16,.03,.28,.42,.43,.48s2.53-3.31,2.68-3.28c.39,.08,1.35,2.5,1.74,2.44,.47-.07,2.08,1.83,2.23,1.93" fill="#5e6671"/><text transform="translate(47.86 10.08) rotate(-11.15) scale(.89 1)" fill="#273e53" font-family="K2D-ExtraLight, K2D" font-size="10"><tspan x="0" y="0">K</tspan></text><text transform="translate(53.34 9.01) rotate(-5.65) scale(.89 1)" fill="#273e53" font-family="K2D-ExtraLight, K2D" font-size="10"><tspan x="0" y="0">L</tspan></text><text transform="translate(57.96 8.54) rotate(-1.04) scale(.89 1)" fill="#273e53" font-family="K2D-ExtraLight, K2D" font-size="10"><tspan x="0" y="0">U</tspan></text><text transform="translate(63.88 8.47) rotate(5.6) scale(.89 1)" fill="#273e53" font-family="K2D-ExtraLight, K2D" font-size="10"><tspan x="0" y="0">K</tspan></text><text transform="translate(68.99 8.94) rotate(11.15) scale(.89 1)" fill="#273e53" font-family="K2D-ExtraLight, K2D" font-size="10"><tspan x="0" y="0">O</tspan></text><path d="M49.08,9.6s-.56,3.71-1.02,4.87c-.23,.59-1.05,1.58-1.33,2.15-.19,.4-.52,1.7-.52,1.7,0,0-2.58,.01-2.6-.05-.03-.1,.24-.49,1.88-1.43,.51,.05,3.59-7.24,3.59-7.24Z" fill="#3c4a60"/><path d="M72.26,9.37s-1.03,4.16-.57,5.31c.23,.59-.62,3.83-.45,3.83,.62,0,2.29,.02,2.29,.02,0,0,2.58,.01,2.6-.05,.03-.1-.24-.49-1.88-1.43-.51,.05-2-7.68-2-7.68Z" fill="#3c4a60"/><path d="M62.06,8.04s-1.03,4.16-.57,5.31c.23,.59-2.2,4.99-2.03,4.99,.62,0,1.82-.4,2.62-.67,.47-.15,2.21-.98,2.15-1.01-1.22-.51,.33-4.06-1.31-4.99-.51,.05-.86-3.63-.86-3.63Z" fill="#3c4a60"/><path d="M49.08,16.09c.08-.59,.85-1.56,1.03-2.12s.3-1.69,.24-2.44c-.07-.95-.72-3.69-.04-4.35,.26-.26,1.85,4.15,2.31,5.59,.26,.82,.92,2.46,.94,3.32,.01,.57-.48,2.3-.48,2.3l-3.46-.03s-.62-1.69-.55-2.27Z" fill="#374f52"/><path d="M57.13,15.56c.08-.59,1.82-2.31,2-2.87s.22-1.14,.16-1.9c-.07-.96-1.68-3.94-.93-4.26,.14-.06,.82,1.17,1.15,1.39,.49,.33,.23,.42,.59,.89,0,0,.1,.03,.14,.17,.07,.28,.27,.61,.51,.99,.44,.67-.17,1.95-.08,2.23,.26,.83,.8,.56,.82,1.43,.01,.58-1.11,2.84-1.11,2.84l-.36-.11s-2.98-.21-2.9-.79Z" fill="#374f52"/><path d="M70.7,16.8c.08-.59,.11-1.35,.29-1.91s-1.04-2.46-1.09-3.21c-.07-.95-1.72-2.23-1.04-2.89,.26-.26,3.22,2.63,3.31,4.13,.05,.86,.92,2.46,.94,3.32,.01,.57-.46,2.27-.46,2.27l-3.46-.02s1.44-1.11,1.52-1.69Z" fill="#374f52"/><path d="M53.21,9.01c-.18,0-.59,.28-.58,.46,.03,.33-.1,.52,.38,.88,.85,.64,3.06,1.26,3.21,1.02,.27-.42-.2-.55-1.98-1.46-.64-.33-.84-.91-1.05-.9Z" fill="#c1b7b2"/><path d="M65.68,10.71c-.16,.08-.65,.05-.73-.12-.14-.3-.46-.47-.1-.95,.69-.91,1.97-3.07,2.23-2.94,.44,.23,.16,1.05-.94,2.71-.39,.6-.28,1.2-.47,1.3Z" fill="#c1b7b2"/><path d="M73.58,13.77c.14-.3,.59-.02,.23-.5-.69-.91-1.29-4.03-1.54-3.9" fill="#c1b7b2"/><path d="M52.83,13.36c.1-.31-.2-.59-1.16-4.11-.43-1.08-1.1-2.23-1.35-2.07" fill="#c1b7b2"/><path d="M47.9,18.34s1.95-1.92,2.68-2.54c.6-.51,1.79-1.56,2.57-1.9,.58-.25,1.94-.63,2.59-.53,.44,.07,1.09,.59,1.37,.84,.27,.24,.6,.82,.81,1.09,.14,.18,.33,.6,.58,.7,.27,.11,.96-.11,1.24-.02,.51,.16,1.1,.92,1.49,1.21,.3,.22,2.74,1.23,2.74,1.23l-16.07-.1Z" fill="#4d585f"/><path d="M61.48,18.42s1.18-2.77,1.62-3.58c.36-.67,1.09-2.07,1.57-2.51,.36-.33,1.19-.83,1.59-.68,.27,.1,.68,.8,.85,1.14,.17,.33,.38,1.11,.51,1.48,.09,.24,.21,.81,.36,.94,.17,.15,.59-.14,.77-.01,.32,.22,.69,1.25,.93,1.64,.19,.3,.89,1.66,.89,1.66l-9.09-.07Z" fill="#4d585f"/><path d="M55.7,13.54c-.52,.08-1.37,1.16-1.28,1.68,.08,.44,.95,.96,1.28,1.27s.94,1.1,1.38,1.23c.57,.16,1.74-.52,2.32-.41s1.42,1.12,2,.94c.22-.07,.44-.65,.2-.67-.74-.04-1.4-1.19-1.82-1.43-.37-.21-1.03,.15-1.38-.09-.22-.15-.84-1.13-1.03-1.33-.35-.38-1.16-1.27-1.67-1.2Z" fill="#4b6e64"/><path d="M66.17,11.84c-.35-.05-.74,1.82-.79,2.21-.05,.33,.41,.87,.55,1.15s.37,.97,.62,1.14c.33,.22,1.23-.04,1.58,.15s.63,1.32,1.03,1.31c.15,0,.57-.36,.57-.53,0,0-.79-1.74-1.07-1.89-.26-.14-.66,.13-.77,.01-.12-.14-.3-.75-.4-1.25-.15-.71-.98-2.26-1.32-2.31Z" fill="#4b6e64"/><path d="M67.06,6.75c.84,.38,3.06,4.86,1.59,5.32-1.12,.35-1.34-3.6-1.6-3.91-.29-.35-.33,1.79-.8,1.66-.82-.23,.31-3.29,.8-3.06Z" fill="#a29890"/><path d="M55.75,13.48c-.58,.03-1.87,.89-.77,1.1,.84,.16,.71-.73,.88-.78,.19-.06,.37,.43,.7,.44,.58,0-.46-.78-.81-.76Z" fill="#a29890"/><path d="M65.87,11.73c-.13,.07-.65,.29-1.05,.58-.12,.09-.21,.2-.3,.32-.77,1.12-1.58,2.27-.81,2.42,.84,.16,1.85-2.06,1.9-2.22,.17-.54,1.1,.15,1.09-.19-.02-.5-.56-1.06-.84-.91Z" fill="#a29890"/><path d="M58.32,6.62c-.05,.08-.03,.15-.08,.24-.04,.1-.01,.7-.03,.83-.18,1.14-.58,.4-1.08,2.37-.06,.25,1.68-1.47,1.71-1.63,.11-.55-.38-.67-.35-1,.04-.49-.07-.99-.18-.81Z" fill="#a29890"/><path d="M51.91,15.01c.43-.25,.11,2.57-.2,3.01-.16,.22-1.19-.56-1.38-.34-.13,.15-.35,.65-.35,.65,0,0-1.73,0-1.75-.02-.02-.04,.56-.95,1.66-1.31,.34,.02,0-.81,2.01-1.99Z" fill="#51628e"/><path d="M62.3,18.43c-.44,.02-.11-1.28,.2-1.5,.16-.11,.1-.62,.28-.73,.13-.08,.24-.7,.24-.7,0,0,.5,.1,.58,.93,.11,1.18,.11,1.91,.11,1.91-.34,0,.56-.01-1.42,.1Z" fill="#51628e"/><path d="M73.71,3.26c-.06,0,.83,.77,.2,1.79-.73,1.19-2.12,.52-2.1,.66,.02,.2,1.87,1.6,2.9-.17,.75-1.3-.75-2.29-1-2.28Z" fill="#d4d5d5" stroke="#273e53" stroke-miterlimit="10" stroke-width=".02"/><path d="M74.29,5.15c-.03,.26-.6,.85-.02,.71,.17-.04,.25-.14,.32-.25s.04-.31,.03-.35c-.05-.19-.3-.45-.34-.11Z" fill="#51628e"/><path d="M73.96,3.52c-.04-.08,.54,.14,.69,.64,.04,.13,.04,.63-.09,.7-.29,.15-.36-.64-.34-.67,.06-.1-.11-.42-.25-.67Z" fill="#51628e"/><path d="M72.69,5.97c-.23,.1-.43,.39,.89,.29,.35-.03,.35-.51,.38-.73,.04-.26-.2-.16-.28-.1-.27,.22-.23,.2-1,.54Z" fill="#51628e"/><path d="M71.89,5.72c-.24-.07,.59,.5,.82,.53,.35,.05,.7-.09,.84-.26,.46-.58-.32-.28-.32-.28,0,0-.58,.24-1.33,0Z" fill="#273e53"/><path d="M74.08,3.71c-.04-.14,.3,.34,.33,.48,.03,.17-.14,.5-.23,.64-.05,.08-.14,.11-.12,.07,.06-.14,.16-.29,.15-.64,0-.25-.11-.52-.12-.55Z" fill="#273e53"/><path d="M74.31,4.33c-.02,.36,.04,.46,.16,.44s.19-.23,.17-.47-.12-.39-.25-.41c-.19-.04-.07,.19-.08,.44Z" fill="#a6abb4"/><path d="M73.11,5.82c-.37,.03-.47,.11-.45,.22s.24,.16,.49,.1,.39-.17,.41-.3c.03-.19-.2-.04-.45-.02Z" fill="#a6abb4"/><path d="M74.22,5.59c-.24,.15-.26,.25-.18,.33s.25,.04,.39-.09,.17-.27,.11-.38c-.09-.16-.16,.04-.32,.15Z" fill="#a6abb4"/><path d="M74.53,4.08c-.01-.06,.08,.15,.09,.21,0,.07-.04,.21-.06,.27-.01,.03-.04,.05-.03,.03,.01-.06,.04-.12,.04-.28,0-.11-.03-.22-.03-.24Z" fill="#273e53"/><path d="M74.49,5.54c.04-.05,.09,.18-.06,.28-.21,.13-.22,.11-.3,.1-.05,0-.09-.1-.07-.1,.07,0,.16,0,.28-.08,.09-.06,.15-.18,.15-.19Z" fill="#273e53"/></svg>